<svg xmlns="http://www.w3.org/2000/svg" xmlns:xlink="http://www.w3.org/1999/xlink" width="150" zoomAndPan="magnify" viewBox="0 0 112.5 74.999997" height="100" preserveAspectRatio="xMidYMid meet" version="1.0"><defs><g/><clipPath id="991ed6935e"><path d="M 93.828125 54 L 104 54 L 104 62.242188 L 93.828125 62.242188 Z M 93.828125 54 " clip-rule="nonzero"/></clipPath><clipPath id="c5b8a780cd"><path d="M 94 6.242188 L 109.507812 6.242188 L 109.507812 49 L 94 49 Z M 94 6.242188 " clip-rule="nonzero"/></clipPath><clipPath id="cabcb81a58"><path d="M 90 51 L 108 51 L 108 67 L 90 67 Z M 90 51 " clip-rule="nonzero"/></clipPath><clipPath id="a66ff44a39"><path d="M 90.746094 51.363281 L 107.164062 51.929688 L 106.671875 66.109375 L 90.253906 65.542969 Z M 90.746094 51.363281 " clip-rule="nonzero"/></clipPath><clipPath id="fb10760a8a"><path d="M 90.746094 51.363281 L 107.164062 51.929688 L 106.671875 66.109375 L 90.253906 65.542969 Z M 90.746094 51.363281 " clip-rule="nonzero"/></clipPath><clipPath id="476d262e78"><path d="M 5 0.164062 L 89 0.164062 L 89 74.832031 L 5 74.832031 Z M 5 0.164062 " clip-rule="nonzero"/></clipPath></defs><g clip-path="url(#991ed6935e)"><path fill="#ffffff" d="M 94.132812 61.246094 L 102.492188 62.441406 C 102.503906 62.445312 102.519531 62.445312 102.535156 62.445312 C 102.601562 62.445312 102.667969 62.421875 102.722656 62.382812 C 102.789062 62.328125 102.828125 62.253906 102.839844 62.171875 L 103.539062 55.28125 C 103.550781 55.195312 103.519531 55.109375 103.464844 55.046875 C 103.40625 54.980469 103.324219 54.945312 103.238281 54.945312 L 94.863281 54.945312 C 94.710938 54.945312 94.578125 55.0625 94.558594 55.214844 L 93.875 60.90625 C 93.851562 61.070312 93.96875 61.222656 94.132812 61.246094 Z M 94.132812 61.246094 " fill-opacity="1" fill-rule="nonzero"/></g><g clip-path="url(#c5b8a780cd)"><path fill="#ffffff" d="M 94.863281 48.3125 L 103.234375 48.3125 C 103.386719 48.3125 103.515625 48.203125 103.539062 48.054688 L 109.816406 8.207031 C 109.832031 8.125 109.8125 8.039062 109.757812 7.976562 C 109.707031 7.910156 109.632812 7.867188 109.550781 7.855469 L 95.242188 6.257812 C 95.15625 6.246094 95.070312 6.277344 95.003906 6.332031 C 94.941406 6.390625 94.902344 6.472656 94.902344 6.558594 L 94.558594 48.003906 C 94.558594 48.085938 94.589844 48.164062 94.648438 48.222656 C 94.707031 48.28125 94.785156 48.3125 94.863281 48.3125 Z M 94.863281 48.3125 " fill-opacity="1" fill-rule="nonzero"/></g><g clip-path="url(#cabcb81a58)"><g clip-path="url(#a66ff44a39)"><g clip-path="url(#fb10760a8a)"><path fill="#ffffff" d="M 106.5625 54 C 105.777344 52.683594 104.226562 51.832031 102.667969 51.863281 C 101.191406 51.894531 99.765625 52.703125 98.996094 53.929688 C 98.316406 52.65625 96.949219 51.746094 95.480469 51.617188 C 93.925781 51.476562 92.320312 52.21875 91.445312 53.476562 C 90.875 54.292969 90.609375 55.292969 90.617188 56.277344 C 90.644531 58.910156 92.453125 61.160156 94.277344 62.929688 C 95.558594 64.175781 97.007812 65.257812 98.574219 66.140625 C 100.199219 65.367188 101.71875 64.386719 103.085938 63.234375 C 105.027344 61.59375 106.988281 59.476562 107.195312 56.851562 C 107.273438 55.867188 107.074219 54.851562 106.5625 54 Z M 106.5625 54 " fill-opacity="1" fill-rule="nonzero"/></g></g></g><g fill="#ffffff" fill-opacity="1"><g transform="translate(6.690216, 65.069426)"><g><path d="M 25.980469 -2.878906 L 24.558594 -15.699219 L 12.039062 -14.3125 L 11.808594 -16.40625 L 21.765625 -17.507812 L 20.34375 -30.328125 L 10.386719 -29.226562 L 10.148438 -31.363281 L 22.667969 -32.75 L 21.25 -45.570312 L -4.089844 -42.761719 L 0.640625 -0.0703125 Z M 25.980469 -2.878906 "/></g></g></g><g fill="#ffffff" fill-opacity="1"><g transform="translate(52.798652, 64.012401)"><g><path d="M 12.976562 0.488281 L 13.988281 -3.5625 L 21.464844 -3.28125 L 22.210938 0.832031 L 35.1875 1.320312 L 25.667969 -42.019531 L 12.695312 -42.503906 L 0 0 Z M 18.378906 -20.824219 L 19.589844 -14.109375 L 16.710938 -14.214844 Z M 18.378906 -20.824219 "/></g></g></g><g clip-path="url(#476d262e78)"><path stroke-linecap="butt" transform="matrix(0.591895, -0.0335407, 0.0335407, 0.591895, 26.585223, -3.331431)" fill="none" stroke-linejoin="miter" d="M 1.362212 28.507113 L 1.36121 119.831866 L 28.762881 119.827128 L 28.757726 97.091327 C 51.143751 97.08615 62.560572 83.933408 62.55954 62.755338 C 62.561753 41.287072 47.400678 28.509127 28.76351 28.508953 Z M 28.763424 55.646368 C 31.970986 55.643342 34.512545 59.007952 34.510923 63.112791 C 34.515309 66.412823 32.415404 70.510952 28.759018 70.514943 Z M 28.763424 55.646368 " stroke="#38b6ff" stroke-width="6.849668" stroke-opacity="1" stroke-miterlimit="4"/></g><g fill="#ffffff" fill-opacity="1"><g transform="translate(29.838667, 54.082372)"><g><path d="M -1.488281 -40.585938 L 1.578125 13.46875 L 17.792969 12.546875 L 17.03125 -0.910156 C 30.273438 -1.660156 36.585938 -9.828125 35.875 -22.367188 C 35.15625 -35.070312 25.753906 -42.128906 14.730469 -41.503906 Z M 15.640625 -25.449219 C 17.53125 -25.558594 19.15625 -23.644531 19.296875 -21.210938 C 19.40625 -19.265625 18.300781 -16.761719 16.136719 -16.640625 Z M 15.640625 -25.449219 "/></g></g></g></svg>