<svg xmlns="http://www.w3.org/2000/svg" xmlns:xlink="http://www.w3.org/1999/xlink" width="100" zoomAndPan="magnify" viewBox="0 0 75 37.5" height="50" preserveAspectRatio="xMidYMid meet" version="1.0"><defs><g/><clipPath id="ad3ba1eaf6"><path d="M 0.492188 0 L 74.503906 0 L 74.503906 37.007812 L 0.492188 37.007812 Z M 0.492188 0 " clip-rule="nonzero"/></clipPath><clipPath id="92971bf887"><path d="M 56.503906 28 L 63 28 L 63 32.496094 L 56.503906 32.496094 Z M 56.503906 28 " clip-rule="nonzero"/></clipPath><clipPath id="3ccb45ccb2"><path d="M 56.503906 0.671875 L 65.386719 0.671875 L 65.386719 25 L 56.503906 25 Z M 56.503906 0.671875 " clip-rule="nonzero"/></clipPath><clipPath id="53abf50b2d"><path d="M 54 26 L 65 26 L 65 35 L 54 35 Z M 54 26 " clip-rule="nonzero"/></clipPath><clipPath id="f968cb7d28"><path d="M 54.746094 26.414062 L 64.359375 26.746094 L 64.078125 34.882812 L 54.464844 34.550781 Z M 54.746094 26.414062 " clip-rule="nonzero"/></clipPath><clipPath id="eca49792c8"><path d="M 54.746094 26.414062 L 64.359375 26.746094 L 64.078125 34.882812 L 54.464844 34.550781 Z M 54.746094 26.414062 " clip-rule="nonzero"/></clipPath><clipPath id="c07841e34b"><path d="M 54.746094 26.414062 L 64.359375 26.746094 L 64.078125 34.882812 L 54.464844 34.550781 Z M 54.746094 26.414062 " clip-rule="nonzero"/></clipPath><clipPath id="340ae40a82"><path d="M 6 0 L 54 0 L 54 37.007812 L 6 37.007812 Z M 6 0 " clip-rule="nonzero"/></clipPath></defs><g clip-path="url(#ad3ba1eaf6)"><path fill="#ffffff" d="M 0.492188 0 L 74.507812 0 L 74.507812 37.007812 L 0.492188 37.007812 Z M 0.492188 0 " fill-opacity="1" fill-rule="nonzero"/><path fill="#ffffff" d="M 0.492188 0 L 74.507812 0 L 74.507812 37.007812 L 0.492188 37.007812 Z M 0.492188 0 " fill-opacity="1" fill-rule="nonzero"/></g><g clip-path="url(#92971bf887)"><path fill="#496592" d="M 56.675781 32.046875 L 61.445312 32.730469 C 61.453125 32.730469 61.460938 32.730469 61.46875 32.730469 C 61.507812 32.730469 61.542969 32.71875 61.574219 32.695312 C 61.613281 32.664062 61.636719 32.621094 61.640625 32.574219 L 62.042969 28.644531 C 62.046875 28.59375 62.03125 28.546875 62 28.511719 C 61.964844 28.472656 61.917969 28.453125 61.871094 28.453125 L 57.09375 28.453125 C 57.003906 28.453125 56.929688 28.519531 56.917969 28.605469 L 56.527344 31.851562 C 56.515625 31.945312 56.582031 32.035156 56.675781 32.046875 Z M 56.675781 32.046875 " fill-opacity="1" fill-rule="nonzero"/></g><g clip-path="url(#3ccb45ccb2)"><path fill="#496592" d="M 57.09375 24.667969 L 61.867188 24.667969 C 61.953125 24.667969 62.027344 24.605469 62.042969 24.523438 L 65.621094 1.792969 C 65.628906 1.746094 65.617188 1.699219 65.589844 1.660156 C 65.558594 1.621094 65.515625 1.597656 65.46875 1.59375 L 57.308594 0.679688 C 57.257812 0.675781 57.210938 0.691406 57.171875 0.722656 C 57.136719 0.757812 57.113281 0.804688 57.113281 0.851562 L 56.917969 24.492188 C 56.917969 24.539062 56.9375 24.585938 56.96875 24.617188 C 57.003906 24.652344 57.046875 24.667969 57.09375 24.667969 Z M 57.09375 24.667969 " fill-opacity="1" fill-rule="nonzero"/></g><g clip-path="url(#53abf50b2d)"><g clip-path="url(#f968cb7d28)"><g clip-path="url(#eca49792c8)"><g clip-path="url(#c07841e34b)"><path fill="#e20000" d="M 63.875 27.898438 C 63.417969 27.160156 62.523438 26.683594 61.625 26.699219 C 60.773438 26.714844 59.953125 27.171875 59.507812 27.855469 C 59.113281 27.140625 58.324219 26.628906 57.476562 26.554688 C 56.582031 26.476562 55.65625 26.890625 55.148438 27.597656 C 54.820312 28.054688 54.667969 28.617188 54.675781 29.171875 C 54.691406 30.648438 55.734375 31.914062 56.789062 32.90625 C 57.53125 33.605469 58.367188 34.214844 59.273438 34.710938 C 60.207031 34.28125 61.085938 33.730469 61.875 33.082031 C 62.992188 32.164062 64.121094 30.976562 64.242188 29.503906 C 64.285156 28.949219 64.171875 28.378906 63.875 27.898438 Z M 63.875 27.898438 " fill-opacity="1" fill-rule="nonzero"/></g></g></g></g><g fill="#496592" fill-opacity="1"><g transform="translate(6.794561, 34.230354)"><g><path d="M 14.820312 -1.644531 L 14.011719 -8.957031 L 6.867188 -8.164062 L 6.734375 -9.359375 L 12.414062 -9.988281 L 11.605469 -17.300781 L 5.925781 -16.671875 L 5.789062 -17.890625 L 12.933594 -18.683594 L 12.121094 -25.996094 L -2.335938 -24.394531 L 0.367188 -0.0390625 Z M 14.820312 -1.644531 "/></g></g></g><g fill="#496592" fill-opacity="1"><g transform="translate(33.097857, 33.627669)"><g><path d="M 7.402344 0.277344 L 7.980469 -2.03125 L 12.242188 -1.871094 L 12.671875 0.476562 L 20.074219 0.753906 L 14.644531 -23.96875 L 7.242188 -24.246094 L 0 0 Z M 10.484375 -11.878906 L 11.175781 -8.046875 L 9.53125 -8.109375 Z M 10.484375 -11.878906 "/></g></g></g><g clip-path="url(#340ae40a82)"><path stroke-linecap="butt" transform="matrix(0.337653, -0.0191337, 0.0191337, 0.337653, 18.144277, -4.789731)" fill="none" stroke-linejoin="miter" d="M 1.358086 28.515108 L 1.354979 119.827665 L 28.761366 119.830469 L 28.766054 97.086425 C 51.139773 97.093266 62.563207 83.938985 62.560399 62.756308 C 62.562396 41.284682 47.402313 28.509723 28.765126 28.50638 Z M 28.76582 55.646882 C 31.970583 55.643384 34.509769 59.014973 34.509077 63.110298 C 34.507348 66.407315 32.412213 70.511211 28.756404 70.512288 Z M 28.76582 55.646882 " stroke="#ffffff" stroke-width="6.849668" stroke-opacity="1" stroke-miterlimit="4"/></g><g fill="#496592" fill-opacity="1"><g transform="translate(20.000242, 27.962624)"><g><path d="M -0.847656 -23.152344 L 0.898438 7.683594 L 10.148438 7.160156 L 9.714844 -0.519531 C 17.269531 -0.949219 20.871094 -5.605469 20.464844 -12.761719 C 20.054688 -20.007812 14.691406 -24.03125 8.402344 -23.675781 Z M 8.921875 -14.519531 C 10 -14.578125 10.929688 -13.488281 11.007812 -12.101562 C 11.070312 -10.988281 10.441406 -9.5625 9.207031 -9.492188 Z M 8.921875 -14.519531 "/></g></g></g></svg>