<svg xmlns="http://www.w3.org/2000/svg" xmlns:xlink="http://www.w3.org/1999/xlink" width="100"
    zoomAndPan="magnify" viewBox="0 0 75 37.5" height="50" preserveAspectRatio="xMidYMid meet"
    version="1.0">
    <defs>
        <g />
        <clipPath id="fa725d8f60">
            <path
                d="M 0.492188 0 L 74.503906 0 L 74.503906 37.007812 L 0.492188 37.007812 Z M 0.492188 0 "
                clip-rule="nonzero" />
        </clipPath>
        <clipPath id="7793881c26">
            <path d="M 58.726562 28 L 65 28 L 65 32.785156 L 58.726562 32.785156 Z M 58.726562 28 "
                clip-rule="nonzero" />
        </clipPath>
        <clipPath id="cffe929310">
            <path d="M 59 0.960938 L 67.609375 0.960938 L 67.609375 25 L 59 25 Z M 59 0.960938 "
                clip-rule="nonzero" />
        </clipPath>
        <clipPath id="e9c1bbc05a">
            <path d="M 56 26 L 67 26 L 67 35 L 56 35 Z M 56 26 " clip-rule="nonzero" />
        </clipPath>
        <clipPath id="d4fd416d3e">
            <path
                d="M 56.996094 26.285156 L 66.613281 26.617188 L 66.332031 34.753906 L 56.714844 34.421875 Z M 56.996094 26.285156 "
                clip-rule="nonzero" />
        </clipPath>
        <clipPath id="58e7f1e83a">
            <path
                d="M 56.996094 26.285156 L 66.613281 26.617188 L 66.332031 34.753906 L 56.714844 34.421875 Z M 56.996094 26.285156 "
                clip-rule="nonzero" />
        </clipPath>
        <clipPath id="eef6c4b343">
            <path
                d="M 56.996094 26.285156 L 66.613281 26.617188 L 66.332031 34.753906 L 56.714844 34.421875 Z M 56.996094 26.285156 "
                clip-rule="nonzero" />
        </clipPath>
        <clipPath id="477f0cae8e">
            <path d="M 9 0 L 56 0 L 56 37.007812 L 9 37.007812 Z M 9 0 " clip-rule="nonzero" />
        </clipPath>
    </defs>
    <g clip-path="url(#fa725d8f60)">
        <path fill="#ffffff"
            d="M 0.492188 0 L 74.507812 0 L 74.507812 37.007812 L 0.492188 37.007812 Z M 0.492188 0 "
            fill-opacity="1" fill-rule="nonzero" />
        <path fill="#ffffff"
            d="M 0.492188 0 L 74.507812 0 L 74.507812 37.007812 L 0.492188 37.007812 Z M 0.492188 0 "
            fill-opacity="1" fill-rule="nonzero" />
    </g>
    <g clip-path="url(#7793881c26)">
        <path fill="#38b6ff"
            d="M 58.898438 31.828125 L 63.585938 32.5 C 63.59375 32.5 63.601562 32.5 63.609375 32.5 C 63.648438 32.5 63.6875 32.488281 63.714844 32.464844 C 63.753906 32.4375 63.777344 32.394531 63.78125 32.347656 L 64.175781 28.480469 C 64.179688 28.433594 64.164062 28.382812 64.132812 28.347656 C 64.101562 28.3125 64.054688 28.292969 64.003906 28.292969 L 59.304688 28.292969 C 59.21875 28.292969 59.148438 28.355469 59.136719 28.441406 L 58.75 31.636719 C 58.738281 31.730469 58.804688 31.816406 58.898438 31.828125 Z M 58.898438 31.828125 "
            fill-opacity="1" fill-rule="nonzero" />
    </g>
    <g clip-path="url(#cffe929310)">
        <path fill="#38b6ff"
            d="M 59.304688 24.570312 L 64.003906 24.570312 C 64.089844 24.570312 64.160156 24.507812 64.175781 24.425781 L 67.699219 2.066406 C 67.703125 2.019531 67.695312 1.972656 67.664062 1.933594 C 67.636719 1.898438 67.59375 1.875 67.546875 1.867188 L 59.519531 0.96875 C 59.46875 0.964844 59.421875 0.980469 59.386719 1.011719 C 59.347656 1.046875 59.328125 1.089844 59.328125 1.140625 L 59.136719 24.398438 C 59.136719 24.441406 59.152344 24.488281 59.183594 24.519531 C 59.21875 24.550781 59.261719 24.570312 59.304688 24.570312 Z M 59.304688 24.570312 "
            fill-opacity="1" fill-rule="nonzero" />
    </g>
    <g clip-path="url(#e9c1bbc05a)">
        <g clip-path="url(#d4fd416d3e)">
            <g clip-path="url(#58e7f1e83a)">
                <g clip-path="url(#eef6c4b343)">
                    <path fill="#e20000"
                        d="M 66.125 27.769531 C 65.671875 27.027344 64.777344 26.550781 63.875 26.570312 C 63.027344 26.585938 62.203125 27.039062 61.761719 27.726562 C 61.367188 27.011719 60.578125 26.5 59.730469 26.425781 C 58.832031 26.347656 57.910156 26.761719 57.402344 27.46875 C 57.078125 27.925781 56.921875 28.488281 56.929688 29.042969 C 56.945312 30.519531 57.988281 31.785156 59.042969 32.78125 C 59.78125 33.480469 60.621094 34.089844 61.523438 34.585938 C 62.460938 34.152344 63.335938 33.601562 64.125 32.957031 C 65.242188 32.035156 66.371094 30.847656 66.492188 29.371094 C 66.535156 28.820312 66.421875 28.25 66.125 27.769531 Z M 66.125 27.769531 "
                        fill-opacity="1" fill-rule="nonzero" />
                </g>
            </g>
        </g>
    </g>
    <g fill="#38b6ff" fill-opacity="1">
        <g transform="translate(9.827897, 33.973925)">
            <g>
                <path
                    d="M 14.578125 -1.617188 L 13.78125 -8.808594 L 6.757812 -8.03125 L 6.625 -9.207031 L 12.214844 -9.824219 L 11.414062 -17.019531 L 5.828125 -16.402344 L 5.695312 -17.597656 L 12.722656 -18.378906 L 11.925781 -25.574219 L -2.296875 -23.996094 L 0.359375 -0.0390625 Z M 14.578125 -1.617188 " />
            </g>
        </g>
    </g>
    <g fill="#38b6ff" fill-opacity="1">
        <g transform="translate(35.702946, 33.381471)">
            <g>
                <path
                    d="M 7.28125 0.273438 L 7.847656 -2 L 12.042969 -1.84375 L 12.464844 0.46875 L 19.746094 0.742188 L 14.40625 -23.578125 L 7.125 -23.851562 L 0 0 Z M 10.3125 -11.683594 L 10.992188 -7.917969 L 9.378906 -7.976562 Z M 10.3125 -11.683594 " />
            </g>
        </g>
    </g>
    <g clip-path="url(#477f0cae8e)">
        <path stroke-linecap="butt"
            transform="matrix(0.332154, -0.0188221, 0.0188221, 0.332154, 20.992618, -4.410356)"
            fill="none" stroke-linejoin="miter"
            d="M 1.358274 28.514092 L 1.358086 119.833178 L 28.759673 119.833567 L 28.754904 97.088785 C 51.146677 97.087533 62.558377 83.939307 62.55904 62.758959 C 62.564587 41.284879 47.400134 28.51233 28.759862 28.51448 Z M 28.763029 55.645781 C 31.973956 55.639568 34.511609 59.005703 34.514228 63.110213 C 34.515127 66.414921 32.412738 70.517751 28.755684 70.510444 Z M 28.763029 55.645781 "
            stroke="#ffffff" stroke-width="6.849668" stroke-opacity="1" stroke-miterlimit="4" />
    </g>
    <g fill="#38b6ff" fill-opacity="1">
        <g transform="translate(22.818357, 27.808611)">
            <g>
                <path
                    d="M -0.835938 -22.773438 L 0.882812 7.558594 L 9.984375 7.042969 L 9.554688 -0.511719 C 16.988281 -0.933594 20.53125 -5.515625 20.132812 -12.550781 C 19.730469 -19.679688 14.453125 -23.640625 8.265625 -23.289062 Z M 8.777344 -14.28125 C 9.835938 -14.34375 10.75 -13.269531 10.828125 -11.902344 C 10.890625 -10.8125 10.269531 -9.40625 9.054688 -9.335938 Z M 8.777344 -14.28125 " />
            </g>
        </g>
    </g>
</svg>