<svg xmlns="http://www.w3.org/2000/svg" xmlns:xlink="http://www.w3.org/1999/xlink" width="1000" zoomAndPan="magnify" viewBox="0 0 750 749.999995" height="1000" preserveAspectRatio="xMidYMid meet" version="1.0"><defs><g/><clipPath id="b4d5cba43f"><path d="M 567.1875 479 L 617 479 L 617 517.421875 L 567.1875 517.421875 Z M 567.1875 479 " clip-rule="nonzero"/></clipPath><clipPath id="8024329c8c"><path d="M 570 231.671875 L 648.9375 231.671875 L 648.9375 446 L 570 446 Z M 570 231.671875 " clip-rule="nonzero"/></clipPath><clipPath id="2b42168918"><path d="M 550 462 L 636 462 L 636 537 L 550 537 Z M 550 462 " clip-rule="nonzero"/></clipPath><clipPath id="f00a58fa3a"><path d="M 551.523438 460.929688 L 636.222656 463.859375 L 633.683594 537.316406 L 548.984375 534.386719 Z M 551.523438 460.929688 " clip-rule="nonzero"/></clipPath><clipPath id="b83ad37fa9"><path d="M 551.523438 460.929688 L 636.222656 463.859375 L 633.683594 537.316406 L 548.984375 534.386719 Z M 551.523438 460.929688 " clip-rule="nonzero"/></clipPath></defs><rect x="-75" width="900" fill="#ffffff" y="-74.999999" height="899.999994" fill-opacity="1"/><rect x="-75" width="900" fill="#38b6ff" y="-74.999999" height="899.999994" fill-opacity="1"/><g clip-path="url(#b4d5cba43f)"><path fill="#ffffff" d="M 568.742188 511.140625 L 611.203125 517.226562 C 611.273438 517.234375 611.347656 517.242188 611.417969 517.242188 C 611.761719 517.242188 612.101562 517.125 612.375 516.914062 C 612.710938 516.652344 612.917969 516.269531 612.964844 515.851562 L 616.535156 480.835938 C 616.578125 480.402344 616.433594 479.96875 616.144531 479.640625 C 615.855469 479.316406 615.429688 479.128906 614.996094 479.128906 L 572.453125 479.128906 C 571.667969 479.128906 571.003906 479.71875 570.90625 480.496094 L 567.414062 509.421875 C 567.3125 510.253906 567.90625 511.023438 568.742188 511.140625 Z M 568.742188 511.140625 " fill-opacity="1" fill-rule="nonzero"/></g><g clip-path="url(#8024329c8c)"><path fill="#ffffff" d="M 572.453125 445.429688 L 614.988281 445.429688 C 615.75 445.429688 616.402344 444.871094 616.527344 444.117188 L 648.429688 241.664062 C 648.492188 241.246094 648.390625 240.820312 648.125 240.484375 C 647.863281 240.148438 647.480469 239.933594 647.0625 239.886719 L 574.371094 231.757812 C 573.9375 231.710938 573.5 231.851562 573.167969 232.136719 C 572.839844 232.433594 572.644531 232.851562 572.644531 233.289062 L 570.898438 443.867188 C 570.898438 444.277344 571.050781 444.683594 571.347656 444.96875 C 571.644531 445.265625 572.039062 445.429688 572.453125 445.429688 Z M 572.453125 445.429688 " fill-opacity="1" fill-rule="nonzero"/></g><g clip-path="url(#2b42168918)"><g clip-path="url(#f00a58fa3a)"><g clip-path="url(#b83ad37fa9)"><path fill="#ffffff" d="M 631.925781 474.308594 C 627.917969 467.613281 620.046875 463.300781 612.113281 463.460938 C 604.628906 463.609375 597.375 467.730469 593.46875 473.949219 C 590 467.476562 583.050781 462.863281 575.59375 462.195312 C 567.691406 461.492188 559.539062 465.25 555.078125 471.652344 C 552.191406 475.796875 550.832031 480.875 550.882812 485.894531 C 551.011719 499.269531 560.203125 510.703125 569.46875 519.695312 C 575.992188 526.027344 583.355469 531.53125 591.324219 536.015625 C 599.582031 532.09375 607.308594 527.109375 614.253906 521.242188 C 624.117188 512.910156 634.078125 502.140625 635.128906 488.804688 C 635.523438 483.804688 634.523438 478.644531 631.925781 474.308594 Z M 631.925781 474.308594 " fill-opacity="1" fill-rule="nonzero"/></g></g></g><g fill="#ffffff" fill-opacity="1"><g transform="translate(124.464087, 530.564477)"><g><path d="M 132.003906 -14.632812 L 124.78125 -79.765625 L 61.167969 -72.714844 L 59.988281 -83.351562 L 110.574219 -88.960938 L 103.355469 -154.09375 L 52.769531 -148.484375 L 51.566406 -159.339844 L 115.175781 -166.394531 L 107.957031 -231.527344 L -20.789062 -217.253906 L 3.257812 -0.359375 Z M 132.003906 -14.632812 "/></g></g></g><g fill="#ffffff" fill-opacity="1"><g transform="translate(358.730086, 525.193682)"><g><path d="M 65.921875 2.472656 L 71.066406 -18.101562 L 109.046875 -16.675781 L 112.855469 4.234375 L 178.777344 6.707031 L 130.421875 -213.480469 L 64.5 -215.953125 L 0 0 Z M 93.375 -105.792969 L 99.527344 -71.679688 L 84.902344 -72.230469 Z M 93.375 -105.792969 "/></g></g></g><path stroke-linecap="butt" transform="matrix(3.007237, -0.17041, 0.17041, 3.007237, 225.546745, 183.040485)" fill="none" stroke-linejoin="miter" d="M 1.360337 28.510624 L 1.360629 119.829408 L 28.760652 119.829829 L 28.760732 97.08912 C 51.1442 97.08974 62.559194 83.935247 62.559201 62.754572 C 62.559959 41.285573 47.399056 28.509891 28.760434 28.50975 Z M 28.760811 55.643533 C 31.970588 55.642268 34.512796 59.009021 34.512857 63.111108 C 34.51287 66.41174 32.416459 70.513232 28.75988 70.513858 Z M 28.760811 55.643533 " stroke="#38b6ff" stroke-width="6.849668" stroke-opacity="1" stroke-miterlimit="4"/><g fill="#ffffff" fill-opacity="1"><g transform="translate(242.076503, 474.742484)"><g><path d="M -7.550781 -206.199219 L 8.011719 68.421875 L 90.394531 63.753906 L 86.519531 -4.628906 C 153.804688 -8.441406 185.890625 -49.929688 182.28125 -113.644531 C 178.621094 -178.179688 130.855469 -214.042969 74.835938 -210.867188 Z M 79.457031 -129.304688 C 89.066406 -129.851562 97.332031 -120.125 98.035156 -107.765625 C 98.59375 -97.878906 92.976562 -85.164062 81.992188 -84.542969 Z M 79.457031 -129.304688 "/></g></g></g></svg>